<?xml version="1.0" encoding="utf-8"?>
<!-- Generator: Adobe Illustrator 22.1.0, SVG Export Plug-In . SVG Version: 6.00 Build 0)  -->
<svg version="1.1" id="Layer_1" xmlns="http://www.w3.org/2000/svg" xmlns:xlink="http://www.w3.org/1999/xlink" x="0px" y="0px"
	 viewBox="0 0 305 130" enable-background="new 0 0 305 130" xml:space="preserve">
<polygon fill="#09102B" points="175.522,0 175.522,24.474 175.522,105.529 151.048,130 188.626,130 280.5,130 305,105.5 305,0 "/>
<g>
	<polygon fill="#41CD52" points="24.474,0 24.474,0 0,24.474 0,130 152.039,130 152.039,130 176.513,105.526 176.513,0 	"/>
	<path fill="#FFFFFF" d="M65.734,101.803c-11.627,0-19.731-3.13-24.314-9.39c-4.583-6.261-6.874-16.155-6.874-29.68
		c0-13.527,2.328-23.568,6.987-30.127c4.656-6.557,12.724-9.837,24.202-9.837c11.475,0,19.524,3.261,24.145,9.782
		c4.621,6.522,6.931,16.563,6.931,30.126c0,8.943-0.95,16.172-2.85,21.686c-1.901,5.517-5.014,9.727-9.334,12.633l9.39,15.091
		l-11.514,5.365l-9.949-16.321C71.136,101.579,68.864,101.803,65.734,101.803z M51.202,84.42c2.532,4.359,7.378,6.54,14.532,6.54
		s11.979-2.142,14.477-6.429c2.495-4.284,3.744-11.531,3.744-21.742c0-10.209-1.286-17.624-3.857-22.245
		c-2.571-4.621-7.36-6.931-14.364-6.931c-7.006,0-11.813,2.311-14.421,6.931c-2.609,4.621-3.912,12-3.912,22.133
		C47.401,72.814,48.667,80.06,51.202,84.42z"/>
	<path fill="#FFFFFF" d="M139.847,53.69h-15.426v24.593c0,4.547,0.336,7.564,1.007,9.054c0.67,1.491,2.383,2.237,5.142,2.237
		l9.165-0.336l0.56,9.725c-4.995,0.968-8.794,1.453-11.403,1.453c-6.334,0-10.675-1.453-13.023-4.36
		c-2.346-2.907-3.521-8.384-3.521-16.433V53.69h-8.54V43.294h8.54V27.085h12.073v16.209h15.426V53.69z"/>
</g>
<g>
	<path fill="#FFFFFF" d="M253.107,94.816c2.72,0,4.924,2.229,4.924,4.985c0,2.766-2.204,5.015-4.924,5.015
		c-2.71,0-4.924-2.249-4.924-5.015C248.184,97.045,250.397,94.816,253.107,94.816z"/>
	<path fill="#FFFFFF" d="M228.958,26.674c2.71,0,4.924,2.249,4.924,5.015c0,2.756-2.213,4.985-4.924,4.985
		c-2.72,0-4.924-2.229-4.924-4.985C224.035,28.923,226.238,26.674,228.958,26.674z"/>
	
		<linearGradient id="path1948_1_" gradientUnits="userSpaceOnUse" x1="741.0124" y1="-258.0765" x2="828.3116" y2="-333.1857" gradientTransform="matrix(0.5625 0 0 -0.568 -222.4423 -123.0175)">
		<stop  offset="0" style="stop-color:#5A9FD4"/>
		<stop  offset="1" style="stop-color:#306998"/>
	</linearGradient>
	<path id="path1948_34_" fill="url(#path1948_1_)" d="M240.57,21.001c-3.671,0.017-7.176,0.33-10.26,0.876
		c-9.086,1.605-10.736,4.965-10.736,11.161v8.183h21.471v2.728h-21.471h-8.058c-6.24,0-11.704,3.751-13.413,10.886
		c-1.971,8.178-2.059,13.282,0,21.822c1.526,6.357,5.171,10.886,11.411,10.886h7.382v-9.81c0-7.087,6.132-13.338,13.413-13.338
		h21.446c5.97,0,10.736-4.915,10.736-10.911V33.038c0-5.819-4.909-10.19-10.736-11.161C248.067,21.263,244.24,20.984,240.57,21.001z
		 M228.958,27.582c2.218,0,4.029,1.841,4.029,4.104c0,2.255-1.811,4.079-4.029,4.079c-2.226,0-4.029-1.824-4.029-4.079
		C224.929,29.423,226.733,27.582,228.958,27.582z"/>
	
		<linearGradient id="path1950_1_" gradientUnits="userSpaceOnUse" x1="862.062" y1="-378.645" x2="830.8875" y2="-334.5384" gradientTransform="matrix(0.5625 0 0 -0.568 -222.4423 -123.0175)">
		<stop  offset="0" style="stop-color:#FFD43B"/>
		<stop  offset="1" style="stop-color:#FFE873"/>
	</linearGradient>
	<path id="path1950_34_" fill="url(#path1950_1_)" d="M265.169,43.948v9.534c0,7.392-6.267,13.613-13.413,13.613H230.31
		c-5.874,0-10.736,5.028-10.736,10.911v20.445c0,5.819,5.06,9.241,10.736,10.911c6.797,1.998,13.314,2.36,21.446,0
		c5.405-1.565,10.736-4.715,10.736-10.911v-8.183h-21.446v-2.728h21.446h10.736c6.24,0,8.565-4.353,10.736-10.886
		c2.242-6.726,2.146-13.194,0-21.822c-1.542-6.212-4.488-10.886-10.736-10.886H265.169z M253.107,95.724
		c2.226,0,4.029,1.824,4.029,4.079c0,2.263-1.803,4.104-4.029,4.104c-2.218,0-4.029-1.841-4.029-4.104
		C249.078,97.548,250.889,95.724,253.107,95.724z"/>
</g>
</svg>
