<?xml version="1.0" encoding="utf-8"?>
<!-- Generator: Adobe Illustrator 22.1.0, SVG Export Plug-In . SVG Version: 6.00 Build 0)  -->
<svg version="1.1" id="Layer_1" xmlns="http://www.w3.org/2000/svg" xmlns:xlink="http://www.w3.org/1999/xlink" x="0px" y="0px"
	 viewBox="0 0 555 130" enable-background="new 0 0 555 130" xml:space="preserve">
<polygon fill="#09102B" points="175.522,0 175.522,24.474 175.522,105.529 151.048,130 188.626,130 530.5,130 555,105.5 555,0 "/>
<g>
	<polygon fill="#41CD52" points="24.474,0 24.474,0 0,24.474 0,130 152.039,130 152.039,130 176.513,105.526 176.513,0 	"/>
	<path fill="#FFFFFF" d="M65.734,101.803c-11.627,0-19.731-3.13-24.314-9.39c-4.583-6.261-6.874-16.155-6.874-29.68
		c0-13.527,2.328-23.568,6.987-30.127c4.656-6.557,12.724-9.837,24.202-9.837c11.475,0,19.524,3.261,24.145,9.782
		c4.621,6.522,6.931,16.563,6.931,30.126c0,8.943-0.95,16.172-2.85,21.686c-1.901,5.517-5.014,9.727-9.334,12.633l9.39,15.091
		l-11.514,5.365l-9.949-16.321C71.136,101.579,68.864,101.803,65.734,101.803z M51.202,84.42c2.532,4.359,7.378,6.54,14.532,6.54
		s11.979-2.142,14.477-6.429c2.495-4.284,3.744-11.531,3.744-21.742c0-10.209-1.286-17.624-3.857-22.245
		c-2.571-4.621-7.36-6.931-14.364-6.931c-7.006,0-11.813,2.311-14.421,6.931c-2.609,4.621-3.912,12-3.912,22.133
		C47.401,72.814,48.667,80.06,51.202,84.42z"/>
	<path fill="#FFFFFF" d="M139.847,53.69h-15.426v24.593c0,4.547,0.336,7.564,1.007,9.054c0.67,1.491,2.383,2.237,5.142,2.237
		l9.165-0.336l0.56,9.725c-4.995,0.968-8.794,1.453-11.403,1.453c-6.334,0-10.675-1.453-13.023-4.36
		c-2.346-2.907-3.521-8.384-3.521-16.433V53.69h-8.54V43.294h8.54V27.085h12.073v16.209h15.426V53.69z"/>
</g>
<g>
	<path fill="#FFFFFF" d="M502.107,94.816c2.72,0,4.924,2.229,4.924,4.985c0,2.766-2.204,5.015-4.924,5.015
		c-2.71,0-4.924-2.249-4.924-5.015C497.184,97.045,499.397,94.816,502.107,94.816z"/>
	<path fill="#FFFFFF" d="M477.958,26.674c2.71,0,4.924,2.249,4.924,5.015c0,2.756-2.213,4.985-4.924,4.985
		c-2.72,0-4.924-2.229-4.924-4.985C473.035,28.923,475.238,26.674,477.958,26.674z"/>
	
		<linearGradient id="path1948_1_" gradientUnits="userSpaceOnUse" x1="1086.4408" y1="-258.0765" x2="1173.74" y2="-333.1857" gradientTransform="matrix(0.5625 0 0 -0.568 -167.7599 -123.0175)">
		<stop  offset="0" style="stop-color:#5A9FD4"/>
		<stop  offset="1" style="stop-color:#306998"/>
	</linearGradient>
	<path id="path1948_9_" fill="url(#path1948_1_)" d="M489.57,21.001c-3.671,0.017-7.176,0.33-10.26,0.876
		c-9.086,1.605-10.736,4.965-10.736,11.161v8.183h21.471v2.728h-21.471h-8.058c-6.24,0-11.704,3.751-13.413,10.886
		c-1.971,8.178-2.059,13.282,0,21.822c1.526,6.357,5.171,10.886,11.411,10.886h7.382v-9.81c0-7.087,6.132-13.338,13.413-13.338
		h21.446c5.97,0,10.736-4.915,10.736-10.911V33.038c0-5.819-4.909-10.19-10.736-11.161C497.067,21.263,493.24,20.984,489.57,21.001z
		 M477.958,27.582c2.218,0,4.029,1.841,4.029,4.104c0,2.255-1.811,4.079-4.029,4.079c-2.226,0-4.029-1.824-4.029-4.079
		C473.929,29.423,475.733,27.582,477.958,27.582z"/>
	
		<linearGradient id="path1950_1_" gradientUnits="userSpaceOnUse" x1="1207.4904" y1="-378.645" x2="1176.3159" y2="-334.5384" gradientTransform="matrix(0.5625 0 0 -0.568 -167.7599 -123.0175)">
		<stop  offset="0" style="stop-color:#FFD43B"/>
		<stop  offset="1" style="stop-color:#FFE873"/>
	</linearGradient>
	<path id="path1950_9_" fill="url(#path1950_1_)" d="M514.169,43.948v9.534c0,7.392-6.267,13.613-13.413,13.613H479.31
		c-5.874,0-10.736,5.028-10.736,10.911v20.445c0,5.819,5.06,9.241,10.736,10.911c6.797,1.998,13.314,2.36,21.446,0
		c5.405-1.565,10.736-4.715,10.736-10.911v-8.183h-21.446v-2.728h21.446h10.736c6.24,0,8.565-4.353,10.736-10.886
		c2.242-6.726,2.146-13.194,0-21.822c-1.542-6.212-4.487-10.886-10.736-10.886H514.169z M502.107,95.724
		c2.226,0,4.029,1.824,4.029,4.079c0,2.263-1.803,4.104-4.029,4.104c-2.218,0-4.029-1.841-4.029-4.104
		C498.078,97.548,499.889,95.724,502.107,95.724z"/>
</g>
<g>
	<path fill="#FFFFFF" d="M210.605,57.619c-4.368,0-7.413-1.176-9.135-3.527c-1.723-2.353-2.583-6.069-2.583-11.151
		s0.874-8.854,2.625-11.319c1.749-2.463,4.78-3.695,9.093-3.695c4.312,0,7.335,1.225,9.072,3.675
		c1.735,2.45,2.604,6.223,2.604,11.319c0,3.359-0.356,6.076-1.071,8.147c-0.714,2.072-1.883,3.654-3.507,4.746l3.528,5.67
		l-4.326,2.016l-3.738-6.132C212.635,57.535,211.781,57.619,210.605,57.619z M205.146,51.089c0.951,1.638,2.771,2.457,5.46,2.457
		c2.688,0,4.5-0.805,5.438-2.415s1.407-4.333,1.407-8.169s-0.482-6.622-1.449-8.358c-0.966-1.735-2.765-2.604-5.396-2.604
		c-2.633,0-4.438,0.869-5.418,2.604c-0.98,1.736-1.47,4.509-1.47,8.316S204.193,49.45,205.146,51.089z"/>
	<path fill="#FFFFFF" d="M237.4,40.063h-5.796v9.24c0,1.708,0.126,2.842,0.378,3.401c0.252,0.561,0.896,0.841,1.933,0.841
		l3.443-0.126l0.21,3.653c-1.876,0.364-3.304,0.546-4.283,0.546c-2.381,0-4.012-0.546-4.894-1.638s-1.323-3.15-1.323-6.174v-9.744
		h-2.688v-3.906h2.688v-6.09h4.536v6.09h5.796V40.063z"/>
	<path fill="#FFFFFF" d="M253.779,40.063v17.094h-4.536V40.063h-2.436v-3.906h2.436v-1.344c0-2.996,0.435-5.054,1.303-6.174
		c0.867-1.12,2.407-1.681,4.62-1.681l4.535,0.421l-0.042,3.737c-1.372-0.056-2.513-0.084-3.423-0.084s-1.547,0.273-1.911,0.819
		s-0.546,1.548-0.546,3.003v1.302h5.544v3.906H253.779z"/>
	<path fill="#FFFFFF" d="M262.662,38.426c1.442-1.82,3.844-2.73,7.203-2.73c3.36,0,5.761,0.91,7.203,2.73s2.163,4.55,2.163,8.189
		c0,3.641-0.7,6.384-2.1,8.232c-1.4,1.848-3.822,2.771-7.267,2.771c-3.443,0-5.866-0.924-7.266-2.771
		c-1.4-1.849-2.1-4.592-2.1-8.232C260.5,42.976,261.22,40.246,262.662,38.426z M266.086,52.075c0.644,1.12,1.903,1.681,3.779,1.681
		s3.136-0.561,3.78-1.681c0.644-1.119,0.966-2.953,0.966-5.502c0-2.547-0.343-4.354-1.028-5.418
		c-0.687-1.063-1.926-1.596-3.718-1.596s-3.031,0.532-3.717,1.596c-0.687,1.064-1.029,2.871-1.029,5.418
		C265.119,49.122,265.441,50.956,266.086,52.075z"/>
	<path fill="#FFFFFF" d="M282.718,57.157v-21h4.536v2.521c2.379-1.54,4.76-2.534,7.14-2.982v4.578
		c-2.408,0.477-4.467,1.092-6.174,1.848l-0.924,0.378v14.658H282.718z"/>
	<path fill="#FFFFFF" d="M316.106,48.212h-5.88v8.945h-4.662v-28.77h10.542c6.524,0,9.786,3.22,9.786,9.66
		c0,3.304-0.818,5.824-2.457,7.56C321.798,47.344,319.354,48.212,316.106,48.212z M310.227,44.18h5.838
		c3.36,0,5.04-2.044,5.04-6.132c0-1.96-0.406-3.388-1.218-4.284c-0.812-0.896-2.086-1.344-3.822-1.344h-5.838V44.18z"/>
	<path fill="#FFFFFF" d="M326.858,36.157h4.494l4.452,17.095h1.134l4.452-17.095h4.536l-7.98,30.03h-4.494l2.521-9.03h-3.612
		L326.858,36.157z"/>
	<path fill="#FFFFFF" d="M359.701,40.063h-5.796v9.24c0,1.708,0.126,2.842,0.378,3.401c0.252,0.561,0.896,0.841,1.933,0.841
		l3.443-0.126l0.21,3.653c-1.876,0.364-3.304,0.546-4.283,0.546c-2.381,0-4.012-0.546-4.894-1.638s-1.323-3.15-1.323-6.174v-9.744
		h-2.688v-3.906h2.688v-6.09h4.536v6.09h5.796V40.063z"/>
	<path fill="#FFFFFF" d="M366.967,57.157h-4.578V27.422h4.578v9.827c2.072-1.035,3.99-1.554,5.754-1.554
		c2.8,0,4.711,0.792,5.733,2.373c1.021,1.582,1.533,4.193,1.533,7.833v11.256h-4.578v-11.13c0-2.268-0.238-3.878-0.714-4.83
		c-0.477-0.951-1.484-1.428-3.024-1.428c-1.344,0-2.688,0.225-4.032,0.672l-0.672,0.252V57.157z"/>
	<path fill="#FFFFFF" d="M385.426,38.426c1.441-1.82,3.843-2.73,7.203-2.73s5.761,0.91,7.203,2.73
		c1.441,1.82,2.163,4.55,2.163,8.189c0,3.641-0.7,6.384-2.101,8.232c-1.4,1.848-3.821,2.771-7.266,2.771s-5.866-0.924-7.267-2.771
		c-1.4-1.849-2.1-4.592-2.1-8.232C383.263,42.976,383.983,40.246,385.426,38.426z M388.849,52.075
		c0.644,1.12,1.904,1.681,3.78,1.681c1.875,0,3.136-0.561,3.78-1.681c0.644-1.119,0.966-2.953,0.966-5.502
		c0-2.547-0.344-4.354-1.029-5.418c-0.687-1.063-1.926-1.596-3.717-1.596c-1.792,0-3.031,0.532-3.717,1.596
		c-0.687,1.064-1.029,2.871-1.029,5.418C387.883,49.122,388.204,50.956,388.849,52.075z"/>
	<path fill="#FFFFFF" d="M410.059,57.157h-4.578v-21h4.536v1.302c2.044-1.176,3.976-1.764,5.796-1.764
		c2.8,0,4.711,0.792,5.733,2.373c1.021,1.582,1.533,4.193,1.533,7.833v11.256h-4.536v-11.13c0-2.268-0.246-3.878-0.735-4.83
		c-0.49-0.951-1.491-1.428-3.003-1.428c-1.428,0-2.8,0.28-4.116,0.84l-0.63,0.252V57.157z"/>
	<path fill="#FFFFFF" d="M207.72,93.129h-4.62v7.028h-3.663V77.553h8.283c5.125,0,7.688,2.53,7.688,7.59
		c0,2.596-0.644,4.576-1.931,5.939C212.19,92.447,210.271,93.129,207.72,93.129z M203.1,89.961h4.587c2.64,0,3.96-1.606,3.96-4.818
		c0-1.54-0.319-2.662-0.957-3.366c-0.639-0.704-1.64-1.056-3.003-1.056H203.1V89.961z"/>
	<path fill="#FFFFFF" d="M216.992,83.657h3.53l3.498,13.432h0.892l3.498-13.432h3.563l-6.27,23.596h-3.531l1.979-7.096h-2.838
		L216.992,83.657z"/>
	<path fill="#FFFFFF" d="M241.808,80.391c-2.794,0-4.191,0.979-4.191,2.937c0,1.013,0.33,1.732,0.99,2.162
		c0.66,0.429,2.117,0.957,4.373,1.584c2.255,0.627,3.844,1.375,4.769,2.244c0.924,0.869,1.386,2.238,1.386,4.108
		c0,2.376-0.677,4.152-2.029,5.329c-1.354,1.178-3.196,1.766-5.528,1.766c-1.87,0-3.938-0.22-6.203-0.66l-1.188-0.23l0.363-2.938
		c2.97,0.396,5.235,0.594,6.798,0.594c2.728,0,4.092-1.209,4.092-3.63c0-0.945-0.309-1.645-0.924-2.096
		c-0.616-0.45-2.002-0.945-4.158-1.484s-3.762-1.281-4.817-2.228c-1.057-0.946-1.584-2.442-1.584-4.488s0.665-3.591,1.996-4.637
		c1.331-1.044,3.173-1.567,5.527-1.567c1.694,0,3.696,0.198,6.006,0.594l1.155,0.198l-0.297,2.971
		C245.262,80.566,243.083,80.391,241.808,80.391z"/>
	<path fill="#FFFFFF" d="M252.665,80.853v-3.795h3.597v3.795H252.665z M252.665,100.157v-16.5h3.597v16.5H252.665z"/>
	<path fill="#FFFFFF" d="M274.082,76.794v23.363h-3.564V99.3c-1.606,0.813-3.08,1.221-4.422,1.221c-2.156,0-3.734-0.648-4.735-1.947
		c-1.002-1.298-1.502-3.476-1.502-6.534c0-3.058,0.556-5.279,1.667-6.666c1.11-1.386,2.843-2.078,5.197-2.078
		c0.792,0,2.046,0.143,3.762,0.429v-6.93H274.082z M269.924,96.726l0.561-0.231v-9.768c-1.319-0.22-2.541-0.33-3.663-0.33
		c-2.222,0-3.333,1.848-3.333,5.544c0,2.024,0.259,3.427,0.776,4.208c0.517,0.78,1.336,1.171,2.458,1.171
		S268.911,97.121,269.924,96.726z"/>
	<path fill="#FFFFFF" d="M290.185,97.188l0.925-0.099l0.065,2.673c-2.508,0.506-4.73,0.759-6.666,0.759
		c-2.441,0-4.196-0.671-5.264-2.013s-1.6-3.487-1.6-6.436c0-5.852,2.387-8.777,7.16-8.777c4.62,0,6.931,2.519,6.931,7.557
		l-0.231,2.574h-10.229c0.021,1.364,0.318,2.365,0.891,3.003s1.639,0.957,3.201,0.957C286.929,97.386,288.535,97.319,290.185,97.188
		z M288.205,90.653c0-1.628-0.259-2.767-0.775-3.415c-0.518-0.649-1.392-0.974-2.624-0.974s-2.128,0.341-2.689,1.022
		c-0.561,0.683-0.853,1.805-0.874,3.366H288.205z"/>
</g>
</svg>
