<?xml version="1.0" encoding="UTF-8"?>
<svg width="35px" height="26px" viewBox="0 0 35 26" version="1.1" xmlns="http://www.w3.org/2000/svg" xmlns:xlink="http://www.w3.org/1999/xlink">
    <!-- Generator: Sketch 44.1 (41455) - http://www.bohemiancoding.com/sketch -->
    <title>Tesla icon</title>
    <desc>Created with Sketch.</desc>
    <defs>
        <linearGradient x1="100%" y1="100%" x2="-22.8515625%" y2="-33.2356771%" id="linearGradient-1">
            <stop stop-color="#6FFF80" offset="0%"></stop>
            <stop stop-color="#43CE57" offset="37.2587344%"></stop>
            <stop stop-color="#425FD0" offset="100%"></stop>
        </linearGradient>
    </defs>
    <g id="Mainpage" stroke="none" stroke-width="1" fill="none" fill-rule="evenodd">
        <g id="Mainpage_Layout_V4_Megamenu" transform="translate(-148.000000, -2722.000000)" fill="url(#linearGradient-1)">
            <g id="Content" transform="translate(-44.000000, 1530.000000)">
                <g id="Deliver" transform="translate(62.000000, 1032.000000)">
                    <g id="Solution" transform="translate(0.907344, 0.000000)">
                        <g id="Auto" transform="translate(0.982155, 118.000000)">
                            <g id="Tesla-icon" transform="translate(128.110501, 42.000000)">
                                <g id="Group-10" transform="translate(0.000000, 0.452730)">
                                    <path d="M34.0366486,9.73662162 C34.6581351,10.5056757 34.9627297,11.515 34.940973,12.7371622 L34.940973,23.1662162 C34.940973,23.9541892 34.2911081,24.5945946 33.4917838,24.5945946 L28.8102973,24.5945946 C28.0308378,24.5945946 27.608,23.8 27.4831351,23.1189189 L28.8027297,22.8777027 C28.8263784,23.0044595 28.885027,23.1652703 28.9342162,23.2541892 L33.4917838,23.2541892 C33.5523243,23.2541892 33.5996216,23.2068919 33.5996216,23.1662162 L33.5996216,12.7248649 C33.6166486,11.8356757 33.4321892,11.1555405 33.0396216,10.6381081 C32.3348919,10.0904054 31.5090811,9.32513514 31.4173243,8.68851351 L31.4107027,8.39054054 L31.6784054,7.98662162 L33.5144865,7.61581081 C33.505973,7.34148649 33.4511081,7.27243243 33.4425946,7.26391892 C33.4340811,7.25540541 33.3811081,7.22986486 33.2505676,7.22986486 L30.425027,7.22986486 C30.1942162,8.2477027 29.2908378,8.95527027 28.0696216,9.01486486 C20.8265135,9.37621622 13.1690811,9.37621622 5.92597297,9.01486486 L5.99313514,7.67540541 C13.1946216,8.03581081 20.8057027,8.03581081 28.0034054,7.67540541 C28.2720541,7.66310811 29.148,7.55337838 29.1413784,6.6972973 C29.1366486,6.2877027 29.1139459,5.95094595 28.8869189,5.49216216 L26.9685405,2.52378378 C26.8834054,2.42824324 26.6554324,2.20878378 26.2202973,2.15486486 C22.6663784,1.92878378 20.0517838,1.80581081 17.4712432,1.83418919 L17.4702973,1.16351351 L17.4693514,1.83418919 C14.9275946,1.83135135 12.2751622,1.92878378 8.68151351,2.15864865 C8.28610811,2.20878378 8.05813514,2.42824324 7.92475676,2.58905405 L4.93272973,7.22986486 L1.69191892,7.22986486 C1.56137838,7.22986486 1.50745946,7.25540541 1.49989189,7.26391892 C1.49137838,7.27243243 1.43556757,7.34148649 1.42705405,7.61486486 L3.26408108,7.98662162 L3.52989189,8.38675676 L3.53178378,8.64121622 L3.52421622,8.69040541 C3.43151351,9.32608108 2.6057027,10.0913514 1.90191892,10.6381081 C1.50935135,11.1555405 1.32583784,11.8356757 1.34191892,12.7125676 L1.34191892,23.1662162 C1.34191892,23.2068919 1.38921622,23.2541892 1.4507027,23.2541892 L5.97516216,23.2541892 C6.03286486,23.1425676 6.09718919,22.9495946 6.12178378,22.8162162 L7.43948649,23.0621622 C7.30137838,23.8028378 6.88516216,24.5945946 6.13218919,24.5945946 L1.4507027,24.5945946 C0.651378378,24.5945946 0.00151351351,23.9541892 0.00151351351,23.1662162 L0.00151351351,12.7248649 C-0.0202432432,11.515 0.283405405,10.5056757 0.905837838,9.73662162 L1.01935135,9.62594595 C1.25772973,9.44337838 1.49989189,9.23337838 1.70327027,9.03945946 L0.716648649,8.82378378 C0.119756757,8.56081081 0.0648918919,8.12851351 0.0894864865,7.88067568 C0.0686756757,7.42 0.103675676,6.79094595 0.52272973,6.34540541 C0.718540541,6.13635135 1.08083784,5.88945946 1.69191892,5.88945946 L4.20340541,5.88945946 L6.84637838,1.79635135 C7.32597297,1.2127027 7.88502703,0.908108108 8.55664865,0.824864865 C12.2193514,0.588378378 14.8415135,0.49 17.4702973,0.493783784 C20.0905676,0.492837838 22.7221892,0.589324324 26.3451622,0.821081081 C27.0565135,0.908108108 27.6165135,1.2127027 28.0478649,1.73108108 L29.9643514,4.69283784 L29.9766486,4.68621622 C30.005027,4.7372973 30.0324595,4.78743243 30.058,4.83662162 L30.7390811,5.88945946 L33.2505676,5.88945946 C33.8616486,5.88945946 34.223,6.1372973 34.4188108,6.34540541 C34.8388108,6.79094595 34.8728649,7.41905405 34.8511081,7.87972973 C34.8785405,8.12851351 34.8236757,8.56081081 34.2248919,8.82378378 L34.0886757,8.8672973 L33.2354324,9.03945946 C33.4388108,9.23148649 33.6828649,9.44243243 33.9231351,9.62594595 L34.0366486,9.73662162 Z M18.9015135,16.7402162 L17.4702973,18.9414324 L16.040973,16.7402162 C13.8747568,16.7402162 12.0727297,16.726027 9.29448649,16.4696757 L9.41840541,15.1349459 C12.2893514,15.3998108 14.1055676,15.3998108 16.4042162,15.3998108 L16.7684054,15.3998108 L17.4702973,16.481027 L18.1731351,15.3998108 L18.5373243,15.3998108 C20.8369189,15.3998108 22.6531351,15.3998108 25.5231351,15.1349459 L25.6470541,16.4696757 C22.8678649,16.726027 21.0677297,16.7402162 18.9015135,16.7402162 Z M27.996027,20.7808243 L28.0433243,21.6160946 C24.8138649,21.7996081 21.3498108,21.8923108 17.741973,21.8923108 L17.199,21.8923108 C13.5921081,21.8923108 10.129,21.7996081 6.89859459,21.6160946 L6.93643243,20.9473108 L6.89481081,21.6160946 C6.05008108,21.5640676 5.194,21.504473 4.32845946,21.4458243 L2.43940541,21.3171757 L2.52643243,19.9796081 L4.42116216,20.1082568 C5.28197297,20.1669054 6.13521622,20.2255541 6.97616216,20.2775811 C10.2623784,20.4639324 13.7954865,20.5462297 17.4695405,20.5509595 L17.4704865,21.2216351 L17.4714324,20.5509595 C21.1350811,20.5433919 24.6814324,20.4639324 27.9676486,20.2775811 C28.8085946,20.2255541 29.6599459,20.1669054 30.5198108,20.1082568 L32.4154865,19.9796081 L32.5025135,21.3171757 L30.6115676,21.4458243 C29.7479189,21.5054189 28.8927838,21.5640676 28.0480541,21.6160946 L27.996027,20.7808243 Z M8.37133784,12.6210946 L8.21052703,13.9520405 L3.12701351,13.3390676 L3.28782432,12.0081216 L8.37133784,12.6210946 Z M31.6532432,12.0076486 L31.8140541,13.3385946 L26.7314865,13.9525135 L26.5706757,12.6206216 L31.6532432,12.0076486 Z" id="Combined-Shape"></path>
                                </g>
                            </g>
                        </g>
                    </g>
                </g>
            </g>
        </g>
    </g>
</svg>