<?xml version="1.0" encoding="UTF-8"?>
<svg width="38px" height="33px" viewBox="0 0 38 33" version="1.1" xmlns="http://www.w3.org/2000/svg" xmlns:xlink="http://www.w3.org/1999/xlink">
    <!-- Generator: Sketch 44.1 (41455) - http://www.bohemiancoding.com/sketch -->
    <title>modem</title>
    <desc>Created with Sketch.</desc>
    <defs>
        <linearGradient x1="100%" y1="100%" x2="-22.8515625%" y2="-33.2356771%" id="linearGradient-1">
            <stop stop-color="#6FFF80" offset="0%"></stop>
            <stop stop-color="#43CE57" offset="37.2587344%"></stop>
            <stop stop-color="#425FD0" offset="100%"></stop>
        </linearGradient>
    </defs>
    <g id="Mainpage" stroke="none" stroke-width="1" fill="none" fill-rule="evenodd">
        <g id="Mainpage_Layout_V4_Megamenu" transform="translate(-831.000000, -3874.000000)" fill="url(#linearGradient-1)">
            <g id="Content" transform="translate(-44.000000, 1530.000000)">
                <g id="Deliver" transform="translate(62.000000, 1032.000000)">
                    <g id="Product" transform="translate(776.000000, 967.000000)">
                        <g id="Auto" transform="translate(36.420728, 345.000000)">
                            <path d="M19.5792725,7.6 C21.1018058,7.6 22.5331391,8.1928 23.6091725,9.26946667 C23.8568058,9.51646667 23.8568058,9.91736667 23.6091725,10.165 C23.4856725,10.2885 23.3235391,10.3505667 23.1614058,10.3505667 C22.9992725,10.3505667 22.8377725,10.2885 22.7136391,10.165 C21.8763725,9.32773333 20.7629725,8.86666667 19.5792725,8.86666667 C18.3949391,8.86666667 17.2821725,9.32773333 16.4449058,10.165 C16.1972725,10.412 15.7963725,10.412 15.5493725,10.165 C15.3017391,9.91736667 15.3017391,9.51646667 15.5493725,9.26946667 C16.6254058,8.1928 18.0567391,7.6 19.5792725,7.6 L19.5792725,7.6 Z M25.4015058,7.4784 C23.8466725,5.92293333 21.7788391,5.06666667 19.5792725,5.06666667 C17.3803391,5.06666667 15.3125058,5.92293333 13.7576725,7.4784 C13.5100391,7.7254 13.1091391,7.7254 12.8621391,7.4784 C12.6145058,7.23076667 12.6145058,6.82986667 12.8621391,6.58286667 C14.6563725,4.78863333 17.0421391,3.8 19.5792725,3.8 C22.1170391,3.8 24.5028058,4.78863333 26.2970391,6.58286667 C26.5446725,6.82986667 26.5446725,7.23076667 26.2970391,7.4784 C26.1735391,7.6019 26.0114058,7.66396667 25.8492725,7.66396667 C25.6877725,7.66396667 25.5256391,7.6019 25.4015058,7.4784 L25.4015058,7.4784 Z M10.2718058,4.88806667 C10.0203725,4.64423333 10.0140391,4.24333333 10.2578725,3.99253333 C12.7551058,1.41803333 16.0655391,0 19.5792725,0 C23.1664725,0 26.4794391,1.42056667 28.9076391,3.99886667 C29.1464058,4.2541 29.1350058,4.655 28.8804058,4.8944 C28.6251725,5.13316667 28.2249058,5.1224 27.9842391,4.8678 C25.7986058,2.54536667 22.8137058,1.26666667 19.5792725,1.26666667 C16.4113391,1.26666667 13.4239058,2.5479 11.1673391,4.87413333 C11.0425725,5.00206667 10.8779058,5.06666667 10.7126058,5.06666667 C10.5536391,5.06666667 10.3946725,5.00713333 10.2718058,4.88806667 L10.2718058,4.88806667 Z M20.2126058,25.3333333 C20.5628391,25.3333333 20.8459391,25.6170667 20.8459391,25.9666667 C20.8459391,26.3162667 20.5628391,26.6 20.2126058,26.6 L7.54593914,26.6 C7.19633914,26.6 6.91260581,26.3162667 6.91260581,25.9666667 C6.91260581,25.6170667 7.19633914,25.3333333 7.54593914,25.3333333 L20.2126058,25.3333333 Z M19.5792725,12.6666667 C19.9282391,12.6666667 20.2126058,12.9510333 20.2126058,13.3 C20.2126058,13.6489667 19.9282391,13.9333333 19.5792725,13.9333333 C19.2303058,13.9333333 18.9459391,13.6489667 18.9459391,13.3 C18.9459391,12.9510333 19.2303058,12.6666667 19.5792725,12.6666667 L19.5792725,12.6666667 Z M35.4126058,19 L22.1126058,19 C21.7623725,19 21.4792725,19.2837333 21.4792725,19.6333333 C21.4792725,19.9829333 21.7623725,20.2666667 22.1126058,20.2666667 L35.4126058,20.2666667 C36.4601391,20.2666667 37.3126058,21.1191333 37.3126058,22.1666667 L37.3126058,29.7666667 C37.3126058,30.8142 36.4601391,31.6666667 35.4126058,31.6666667 L3.74593914,31.6666667 C2.69840581,31.6666667 1.84593914,30.8142 1.84593914,29.7666667 L1.84593914,22.1666667 C1.84593914,21.1191333 2.69840581,20.2666667 3.74593914,20.2666667 L19.5792725,20.2666667 C19.9288725,20.2666667 20.2126058,19.9829333 20.2126058,19.6333333 L20.2126058,15.0834667 C20.9479058,14.8206333 21.4792725,14.1246 21.4792725,13.3 C21.4792725,12.2524667 20.6268058,11.4 19.5792725,11.4 C18.5317391,11.4 17.6792725,12.2524667 17.6792725,13.3 C17.6792725,14.1246 18.2100058,14.8206333 18.9459391,15.0828333 L18.9459391,19 L3.74593914,19 C1.99983914,19 0.579272478,20.4205667 0.579272478,22.1666667 L0.579272478,29.7666667 C0.579272478,31.5127667 1.99983914,32.9333333 3.74593914,32.9333333 L35.4126058,32.9333333 C37.1587058,32.9333333 38.5792725,31.5127667 38.5792725,29.7666667 L38.5792725,22.1666667 C38.5792725,20.4205667 37.1587058,19 35.4126058,19 L35.4126058,19 Z M25.9126058,25.9666667 C25.9126058,25.6177 26.1963391,25.3333333 26.5459391,25.3333333 C26.8955391,25.3333333 27.1792725,25.6177 27.1792725,25.9666667 C27.1792725,26.3156333 26.8955391,26.6 26.5459391,26.6 C26.1963391,26.6 25.9126058,26.3156333 25.9126058,25.9666667 L25.9126058,25.9666667 Z M28.4459391,25.9666667 C28.4459391,24.9191333 27.5934725,24.0666667 26.5459391,24.0666667 C25.4984058,24.0666667 24.6459391,24.9191333 24.6459391,25.9666667 C24.6459391,27.0142 25.4984058,27.8666667 26.5459391,27.8666667 C27.5934725,27.8666667 28.4459391,27.0142 28.4459391,25.9666667 L28.4459391,25.9666667 Z M30.9792725,25.9666667 C30.9792725,25.6177 31.2630058,25.3333333 31.6126058,25.3333333 C31.9622058,25.3333333 32.2459391,25.6177 32.2459391,25.9666667 C32.2459391,26.3156333 31.9622058,26.6 31.6126058,26.6 C31.2630058,26.6 30.9792725,26.3156333 30.9792725,25.9666667 L30.9792725,25.9666667 Z M33.5126058,25.9666667 C33.5126058,24.9191333 32.6601391,24.0666667 31.6126058,24.0666667 C30.5650725,24.0666667 29.7126058,24.9191333 29.7126058,25.9666667 C29.7126058,27.0142 30.5650725,27.8666667 31.6126058,27.8666667 C32.6601391,27.8666667 33.5126058,27.0142 33.5126058,25.9666667 L33.5126058,25.9666667 Z" id="modem"></path>
                        </g>
                    </g>
                </g>
            </g>
        </g>
    </g>
</svg>