<?xml version="1.0" encoding="UTF-8"?>
<svg width="38px" height="38px" viewBox="0 0 38 38" version="1.1" xmlns="http://www.w3.org/2000/svg" xmlns:xlink="http://www.w3.org/1999/xlink">
    <!-- Generator: Sketch 44.1 (41455) - http://www.bohemiancoding.com/sketch -->
    <title>microchip</title>
    <desc>Created with Sketch.</desc>
    <defs>
        <linearGradient x1="100%" y1="100%" x2="-22.8515625%" y2="-33.2356771%" id="linearGradient-1">
            <stop stop-color="#6FFF80" offset="0%"></stop>
            <stop stop-color="#43CE57" offset="37.2587344%"></stop>
            <stop stop-color="#425FD0" offset="100%"></stop>
        </linearGradient>
    </defs>
    <g id="Mainpage" stroke="none" stroke-width="1" fill="none" fill-rule="evenodd">
        <g id="Mainpage_Layout_V4_Megamenu" transform="translate(-148.000000, -2886.000000)" fill="url(#linearGradient-1)">
            <g id="Content" transform="translate(-44.000000, 1530.000000)">
                <g id="Deliver" transform="translate(62.000000, 1032.000000)">
                    <g id="Solution" transform="translate(0.907344, 0.000000)">
                        <g id="Auto" transform="translate(128.513384, 324.000000)">
                            <path d="M36.0459391,13.9333333 L36.0459391,16.4666667 L37.9459391,16.4666667 C38.2961725,16.4666667 38.5792725,16.7504 38.5792725,17.1 C38.5792725,17.4496 38.2961725,17.7333333 37.9459391,17.7333333 L36.0459391,17.7333333 L36.0459391,20.2666667 L37.9459391,20.2666667 C38.2961725,20.2666667 38.5792725,20.5504 38.5792725,20.9 C38.5792725,21.2496 38.2961725,21.5333333 37.9459391,21.5333333 L36.0459391,21.5333333 L36.0459391,24.0666667 L37.9459391,24.0666667 C38.2961725,24.0666667 38.5792725,24.3504 38.5792725,24.7 C38.5792725,25.0496 38.2961725,25.3333333 37.9459391,25.3333333 L36.0459391,25.3333333 L36.0459391,27.8666667 L37.9459391,27.8666667 C38.2961725,27.8666667 38.5792725,28.1504 38.5792725,28.5 C38.5792725,28.8496 38.2961725,29.1333333 37.9459391,29.1333333 L36.0459391,29.1333333 L36.0459391,32.3 C36.0459391,33.9276667 34.5069391,35.4666667 32.8792725,35.4666667 L29.7126058,35.4666667 L29.7126058,37.3666667 C29.7126058,37.7162667 29.4295058,38 29.0792725,38 C28.7290391,38 28.4459391,37.7162667 28.4459391,37.3666667 L28.4459391,35.4666667 L25.9126058,35.4666667 L25.9126058,37.3666667 C25.9126058,37.7162667 25.6295058,38 25.2792725,38 C24.9290391,38 24.6459391,37.7162667 24.6459391,37.3666667 L24.6459391,35.4666667 L22.1126058,35.4666667 L22.1126058,37.3666667 C22.1126058,37.7162667 21.8295058,38 21.4792725,38 C21.1290391,38 20.8459391,37.7162667 20.8459391,37.3666667 L20.8459391,35.4666667 L18.3126058,35.4666667 L18.3126058,37.3666667 C18.3126058,37.7162667 18.0295058,38 17.6792725,38 C17.3290391,38 17.0459391,37.7162667 17.0459391,37.3666667 L17.0459391,35.4666667 L14.5126058,35.4666667 L14.5126058,37.3666667 C14.5126058,37.7162667 14.2295058,38 13.8792725,38 C13.5290391,38 13.2459391,37.7162667 13.2459391,37.3666667 L13.2459391,35.4666667 L10.7126058,35.4666667 L10.7126058,37.3666667 C10.7126058,37.7162667 10.4295058,38 10.0792725,38 C9.72903914,38 9.44593914,37.7162667 9.44593914,37.3666667 L9.44593914,35.4666667 L6.27927248,35.4666667 C4.65160581,35.4666667 3.11260581,33.9276667 3.11260581,32.3 C3.11260581,31.9504 3.39570581,31.6666667 3.74593914,31.6666667 C4.09617248,31.6666667 4.37927248,31.9504 4.37927248,32.3 C4.37927248,33.2234 5.35587248,34.2 6.27927248,34.2 L32.8792725,34.2 C33.8026725,34.2 34.7792725,33.2234 34.7792725,32.3 L34.7792725,5.7 C34.7792725,4.7766 33.8026725,3.8 32.8792725,3.8 L6.27927248,3.8 C5.35587248,3.8 4.37927248,4.7766 4.37927248,5.7 L4.37927248,29.7666667 C4.37927248,30.1162667 4.09617248,30.4 3.74593914,30.4 C3.39570581,30.4 3.11260581,30.1162667 3.11260581,29.7666667 L3.11260581,29.1333333 L1.21260581,29.1333333 C0.862372478,29.1333333 0.579272478,28.8496 0.579272478,28.5 C0.579272478,28.1504 0.862372478,27.8666667 1.21260581,27.8666667 L3.11260581,27.8666667 L3.11260581,25.3333333 L1.21260581,25.3333333 C0.862372478,25.3333333 0.579272478,25.0496 0.579272478,24.7 C0.579272478,24.3504 0.862372478,24.0666667 1.21260581,24.0666667 L3.11260581,24.0666667 L3.11260581,21.5333333 L1.21260581,21.5333333 C0.862372478,21.5333333 0.579272478,21.2496 0.579272478,20.9 C0.579272478,20.5504 0.862372478,20.2666667 1.21260581,20.2666667 L3.11260581,20.2666667 L3.11260581,17.7333333 L1.21260581,17.7333333 C0.862372478,17.7333333 0.579272478,17.4496 0.579272478,17.1 C0.579272478,16.7504 0.862372478,16.4666667 1.21260581,16.4666667 L3.11260581,16.4666667 L3.11260581,13.9333333 L1.21260581,13.9333333 C0.862372478,13.9333333 0.579272478,13.6496 0.579272478,13.3 C0.579272478,12.9504 0.862372478,12.6666667 1.21260581,12.6666667 L3.11260581,12.6666667 L3.11260581,10.1333333 L1.21260581,10.1333333 C0.862372478,10.1333333 0.579272478,9.8496 0.579272478,9.5 C0.579272478,9.1504 0.862372478,8.86666667 1.21260581,8.86666667 L3.11260581,8.86666667 L3.11260581,5.7 C3.11260581,4.07233333 4.65160581,2.53333333 6.27927248,2.53333333 L9.44593914,2.53333333 L9.44593914,0.633333333 C9.44593914,0.283733333 9.72903914,0 10.0792725,0 C10.4295058,0 10.7126058,0.283733333 10.7126058,0.633333333 L10.7126058,2.53333333 L13.2459391,2.53333333 L13.2459391,0.633333333 C13.2459391,0.283733333 13.5290391,0 13.8792725,0 C14.2295058,0 14.5126058,0.283733333 14.5126058,0.633333333 L14.5126058,2.53333333 L17.0459391,2.53333333 L17.0459391,0.633333333 C17.0459391,0.283733333 17.3290391,0 17.6792725,0 C18.0295058,0 18.3126058,0.283733333 18.3126058,0.633333333 L18.3126058,2.53333333 L20.8459391,2.53333333 L20.8459391,0.633333333 C20.8459391,0.283733333 21.1290391,0 21.4792725,0 C21.8295058,0 22.1126058,0.283733333 22.1126058,0.633333333 L22.1126058,2.53333333 L24.6459391,2.53333333 L24.6459391,0.633333333 C24.6459391,0.283733333 24.9290391,0 25.2792725,0 C25.6295058,0 25.9126058,0.283733333 25.9126058,0.633333333 L25.9126058,2.53333333 L28.4459391,2.53333333 L28.4459391,0.633333333 C28.4459391,0.283733333 28.7290391,0 29.0792725,0 C29.4295058,0 29.7126058,0.283733333 29.7126058,0.633333333 L29.7126058,2.53333333 L32.8792725,2.53333333 C34.5069391,2.53333333 36.0459391,4.07233333 36.0459391,5.7 L36.0459391,8.86666667 L37.9459391,8.86666667 C38.2961725,8.86666667 38.5792725,9.1504 38.5792725,9.5 C38.5792725,9.8496 38.2961725,10.1333333 37.9459391,10.1333333 L36.0459391,10.1333333 L36.0459391,12.6666667 L37.9459391,12.6666667 C38.2961725,12.6666667 38.5792725,12.9504 38.5792725,13.3 C38.5792725,13.6496 38.2961725,13.9333333 37.9459391,13.9333333 L36.0459391,13.9333333 L36.0459391,13.9333333 Z M11.9792725,18.3666667 C11.9792725,18.0823 11.6296725,17.7333333 11.3459391,17.7333333 C10.3693391,17.7333333 9.44593914,16.8099333 9.44593914,15.8333333 L9.44593914,10.7666667 C9.44593914,9.79006667 10.3693391,8.86666667 11.3459391,8.86666667 L27.8126058,8.86666667 C28.7892058,8.86666667 29.7126058,9.79006667 29.7126058,10.7666667 L29.7126058,20.9 C29.7126058,21.8766 28.7892058,22.8 27.8126058,22.8 L25.7954391,22.8 C25.5332391,23.5359333 24.8372058,24.0666667 24.0126058,24.0666667 C23.1880058,24.0666667 22.4919725,23.5359333 22.2297725,22.8 L17.6792725,22.8 C16.7026725,22.8 15.7792725,21.8766 15.7792725,20.9 L15.7792725,18.8828333 C15.0439725,18.6206333 14.5126058,17.9246 14.5126058,17.1 C14.5126058,16.0524667 15.3650725,15.2 16.4126058,15.2 C17.4601391,15.2 18.3126058,16.0524667 18.3126058,17.1 C18.3126058,17.9246 17.7812391,18.6206333 17.0459391,18.8834667 L17.0459391,20.9 C17.0459391,21.1843667 17.3955391,21.5333333 17.6792725,21.5333333 L22.2297725,21.5333333 C22.4204058,20.9969 22.8422058,20.5744667 23.3792725,20.3832 L23.3792725,16.3495 C22.6439725,16.0873 22.1126058,15.3912667 22.1126058,14.5666667 C22.1126058,13.5191333 22.9650725,12.6666667 24.0126058,12.6666667 C25.0601391,12.6666667 25.9126058,13.5191333 25.9126058,14.5666667 C25.9126058,15.3912667 25.3812391,16.0873 24.6459391,16.3501333 L24.6459391,20.3832 C25.1830058,20.5744667 25.6048058,20.9969 25.7954391,21.5333333 L27.8126058,21.5333333 C28.0963391,21.5333333 28.4459391,21.1843667 28.4459391,20.9 L28.4459391,10.7666667 C28.4459391,10.4823 28.0963391,10.1333333 27.8126058,10.1333333 L11.3459391,10.1333333 C11.0622058,10.1333333 10.7126058,10.4823 10.7126058,10.7666667 L10.7126058,15.8333333 C10.7126058,16.1177 11.0622058,16.4666667 11.3459391,16.4666667 C12.3225391,16.4666667 13.2459391,17.3900667 13.2459391,18.3666667 C13.2459391,19.3432667 12.3225391,20.2666667 11.3459391,20.2666667 C11.0622058,20.2666667 10.7126058,20.6156333 10.7126058,20.9 L10.7126058,27.2333333 C10.7126058,27.5177 11.0622058,27.8666667 11.3459391,27.8666667 L12.6126058,27.8666667 C12.8963391,27.8666667 13.2459391,27.5177 13.2459391,27.2333333 C13.2459391,26.2567333 14.1687058,25.3333333 15.1453058,25.3333333 L17.6792725,25.3333333 C18.6558725,25.3333333 19.5792725,26.2567333 19.5792725,27.2333333 C19.5792725,27.5177 19.9288725,27.8666667 20.2126058,27.8666667 L26.0297725,27.8666667 C26.2919725,27.1307333 26.9880058,26.6 27.8126058,26.6 C28.8601391,26.6 29.7126058,27.4524667 29.7126058,28.5 C29.7126058,29.5475333 28.8601391,30.4 27.8126058,30.4 C26.9880058,30.4 26.2919725,29.8692667 26.0297725,29.1333333 L20.2126058,29.1333333 C19.2360058,29.1333333 18.3126058,28.2099333 18.3126058,27.2333333 C18.3126058,26.9489667 17.9630058,26.6 17.6792725,26.6 L15.1453058,26.6 C14.8615725,26.6 14.5126058,26.9489667 14.5126058,27.2333333 C14.5126058,28.2099333 13.5892058,29.1333333 12.6126058,29.1333333 L11.3459391,29.1333333 C10.3693391,29.1333333 9.44593914,28.2099333 9.44593914,27.2333333 L9.44593914,20.9 C9.44593914,19.9234 10.3693391,19 11.3459391,19 C11.6296725,19 11.9792725,18.6510333 11.9792725,18.3666667 L11.9792725,18.3666667 Z M27.1792725,28.5 C27.1792725,28.8489667 27.4630058,29.1333333 27.8126058,29.1333333 C28.1622058,29.1333333 28.4459391,28.8489667 28.4459391,28.5 C28.4459391,28.1510333 28.1622058,27.8666667 27.8126058,27.8666667 C27.4630058,27.8666667 27.1792725,28.1510333 27.1792725,28.5 L27.1792725,28.5 Z M15.7792725,17.1 C15.7792725,17.4489667 16.0630058,17.7333333 16.4126058,17.7333333 C16.7622058,17.7333333 17.0459391,17.4489667 17.0459391,17.1 C17.0459391,16.7510333 16.7622058,16.4666667 16.4126058,16.4666667 C16.0630058,16.4666667 15.7792725,16.7510333 15.7792725,17.1 L15.7792725,17.1 Z M23.3792725,14.5666667 C23.3792725,14.9156333 23.6630058,15.2 24.0126058,15.2 C24.3622058,15.2 24.6459391,14.9156333 24.6459391,14.5666667 C24.6459391,14.2177 24.3622058,13.9333333 24.0126058,13.9333333 C23.6630058,13.9333333 23.3792725,14.2177 23.3792725,14.5666667 L23.3792725,14.5666667 Z M24.6459391,22.1666667 C24.6459391,21.8177 24.3622058,21.5333333 24.0126058,21.5333333 C23.6630058,21.5333333 23.3792725,21.8177 23.3792725,22.1666667 C23.3792725,22.5156333 23.6630058,22.8 24.0126058,22.8 C24.3622058,22.8 24.6459391,22.5156333 24.6459391,22.1666667 L24.6459391,22.1666667 Z M31.6316058,31.6666667 C31.9812058,31.6666667 32.2649391,31.3829333 32.2649391,31.0333333 C32.2649391,30.6837333 31.9812058,30.4 31.6316058,30.4 L31.6246391,30.4 C31.2756725,30.4 30.9951058,30.6837333 30.9951058,31.0333333 C30.9951058,31.3829333 31.2813725,31.6666667 31.6316058,31.6666667 L31.6316058,31.6666667 Z M7.56493914,31.6666667 C7.91453914,31.6666667 8.19827248,31.3829333 8.19827248,31.0333333 C8.19827248,30.6837333 7.91453914,30.4 7.56493914,30.4 L7.55797248,30.4 C7.20900581,30.4 6.92843914,30.6837333 6.92843914,31.0333333 C6.92843914,31.3829333 7.21533914,31.6666667 7.56493914,31.6666667 L7.56493914,31.6666667 Z M31.6316058,7.6 C31.9812058,7.6 32.2649391,7.31626667 32.2649391,6.96666667 C32.2649391,6.61706667 31.9812058,6.33333333 31.6316058,6.33333333 L31.6246391,6.33333333 C31.2756725,6.33333333 30.9951058,6.61706667 30.9951058,6.96666667 C30.9951058,7.31626667 31.2813725,7.6 31.6316058,7.6 L31.6316058,7.6 Z M7.56493914,7.6 C7.91453914,7.6 8.19827248,7.31626667 8.19827248,6.96666667 C8.19827248,6.61706667 7.91453914,6.33333333 7.56493914,6.33333333 L7.55797248,6.33333333 C7.20900581,6.33333333 6.92843914,6.61706667 6.92843914,6.96666667 C6.92843914,7.31626667 7.21533914,7.6 7.56493914,7.6 L7.56493914,7.6 Z" id="microchip"></path>
                        </g>
                    </g>
                </g>
            </g>
        </g>
    </g>
</svg>