<?xml version="1.0" encoding="UTF-8"?>
<svg width="48px" height="48px" viewBox="0 0 48 48" version="1.1" xmlns="http://www.w3.org/2000/svg" xmlns:xlink="http://www.w3.org/1999/xlink">
    <!-- Generator: Sketch 44.1 (41455) - http://www.bohemiancoding.com/sketch -->
    <title>imac-iphone-ipad copy 2</title>
    <desc>Created with Sketch.</desc>
    <defs>
        <linearGradient x1="100%" y1="100%" x2="-22.8515625%" y2="-33.2356771%" id="linearGradient-1">
            <stop stop-color="#6FFF80" offset="0%"></stop>
            <stop stop-color="#43CE57" offset="37.2587344%"></stop>
            <stop stop-color="#425FD0" offset="100%"></stop>
        </linearGradient>
    </defs>
    <g id="Mainpage" stroke="none" stroke-width="1" fill="none" fill-rule="evenodd">
        <g id="Mainpage_Layout_V4_Megamenu" transform="translate(-306.000000, -1756.000000)" fill="url(#linearGradient-1)">
            <g id="Content" transform="translate(-44.000000, 1530.000000)">
                <g id="WhatQtis" transform="translate(194.000000, 0.000000)">
                    <g id="Block1" transform="translate(0.000000, 183.000000)">
                        <path d="M204,47 L204,67.8 C204,68.2416 203.6424,68.6 203.2,68.6 C202.7576,68.6 202.4,68.2416 202.4,67.8 L202.4,47 C202.4,45.6768 201.3232,44.6 200,44.6 L160,44.6 C158.6768,44.6 157.6,45.6768 157.6,47 L157.6,61.4 C157.6,61.8416 157.2424,62.2 156.8,62.2 C156.3576,62.2 156,61.8416 156,61.4 L156,47 C156,44.7944 157.7944,43 160,43 L200,43 C202.2056,43 204,44.7944 204,47 L204,47 Z M190.4,70.2 L179.2,70.2 C178.7576,70.2 178.4,70.5584 178.4,71 C178.4,71.4416 178.7576,71.8 179.2,71.8 L190.4,71.8 C190.8424,71.8 191.2,71.4416 191.2,71 C191.2,70.5584 190.8424,70.2 190.4,70.2 L190.4,70.2 Z M190.4,78.2 L179.2,78.2 C178.7576,78.2 178.4,78.5584 178.4,79 C178.4,79.4416 178.7576,79.8 179.2,79.8 L190.4,79.8 C190.8424,79.8 191.2,79.4416 191.2,79 C191.2,78.5584 190.8424,78.2 190.4,78.2 L190.4,78.2 Z M180,76.6 C180.8824,76.6 181.6,75.8824 181.6,75 C181.6,74.1176 180.8824,73.4 180,73.4 C179.1184,73.4 178.4,74.1176 178.4,75 C178.4,75.8824 179.1184,76.6 180,76.6 L180,76.6 Z M198.424,86.2 L198.4152,86.2 C197.9744,86.2 197.62,86.5584 197.62,87 C197.62,87.4416 197.9816,87.8 198.424,87.8 C198.8656,87.8 199.224,87.4416 199.224,87 C199.224,86.5584 198.8656,86.2 198.424,86.2 L198.424,86.2 Z M166.424,86.2 L166.4152,86.2 C165.9744,86.2 165.62,86.5584 165.62,87 C165.62,87.4416 165.9816,87.8 166.424,87.8 C166.8656,87.8 167.224,87.4416 167.224,87 C167.224,86.5584 166.8656,86.2 166.424,86.2 L166.424,86.2 Z M187.2,86.2 L184.8,86.2 L184.8,82.2 C184.8,81.7584 184.4424,81.4 184,81.4 C183.5576,81.4 183.2,81.7584 183.2,82.2 L183.2,87 C183.2,87.4416 183.5576,87.8 184,87.8 L187.2,87.8 C188.7048,87.8 189.268,88.6888 189.4776,89.4 L179.2,89.4 C178.7576,89.4 178.4,89.7584 178.4,90.2 C178.4,90.6416 178.7576,91 179.2,91 L190.4,91 C190.8424,91 191.2,90.6416 191.2,90.2 C191.2,88.8168 190.364,86.2 187.2,86.2 L187.2,86.2 Z M179.2,87.8 L180.8,87.8 C181.2424,87.8 181.6,87.4416 181.6,87 C181.6,86.5584 181.2424,86.2 180.8,86.2 L179.2,86.2 C178.7576,86.2 178.4,86.5584 178.4,87 C178.4,87.4416 178.7576,87.8 179.2,87.8 L179.2,87.8 Z M176.8,66.2 L176.8,88.6 C176.8,89.9232 175.7232,91 174.4,91 L158.4,91 C157.0768,91 156,89.9232 156,88.6 L156,66.2 C156,64.8768 157.0768,63.8 158.4,63.8 L174.4,63.8 C175.7232,63.8 176.8,64.8768 176.8,66.2 L176.8,66.2 Z M175.2,66.2 C175.2,65.7592 174.8416,65.4 174.4,65.4 L158.4,65.4 C157.9584,65.4 157.6,65.7592 157.6,66.2 L157.6,88.6 C157.6,89.0408 157.9584,89.4 158.4,89.4 L174.4,89.4 C174.8416,89.4 175.2,89.0408 175.2,88.6 L175.2,66.2 L175.2,66.2 Z M204,72.6 L204,88.6 C204,89.9232 202.9232,91 201.6,91 L195.2,91 C193.8768,91 192.8,89.9232 192.8,88.6 L192.8,72.6 C192.8,71.2768 193.8768,70.2 195.2,70.2 L201.6,70.2 C202.9232,70.2 204,71.2768 204,72.6 L204,72.6 Z M202.4,72.6 C202.4,72.1592 202.0416,71.8 201.6,71.8 L195.2,71.8 C194.7584,71.8 194.4,72.1592 194.4,72.6 L194.4,88.6 C194.4,89.0408 194.7584,89.4 195.2,89.4 L201.6,89.4 C202.0416,89.4 202.4,89.0408 202.4,88.6 L202.4,72.6 L202.4,72.6 Z M198.4,51 C198.6048,51 198.8096,50.9216 198.9656,50.7656 C199.2784,50.4528 199.2784,49.9472 198.9656,49.6344 L197.3656,48.0344 C197.0528,47.7216 196.5472,47.7216 196.2344,48.0344 C195.9216,48.3472 195.9216,48.8528 196.2344,49.1656 L197.8344,50.7656 C197.9904,50.9216 198.1952,51 198.4,51 L198.4,51 Z M198.4,55.8 C198.6048,55.8 198.8096,55.7216 198.9656,55.5656 C199.2784,55.2528 199.2784,54.7472 198.9656,54.4344 L192.5656,48.0344 C192.2528,47.7216 191.7472,47.7216 191.4344,48.0344 C191.1216,48.3472 191.1216,48.8528 191.4344,49.1656 L197.8344,55.5656 C197.9904,55.7216 198.1952,55.8 198.4,55.8 L198.4,55.8 Z" id="imac-iphone-ipad-copy-2"></path>
                    </g>
                </g>
            </g>
        </g>
    </g>
</svg>