<?xml version="1.0" encoding="UTF-8"?>
<svg width="39px" height="35px" viewBox="0 0 39 35" version="1.1" xmlns="http://www.w3.org/2000/svg" xmlns:xlink="http://www.w3.org/1999/xlink">
    <!-- Generator: Sketch 44.1 (41455) - http://www.bohemiancoding.com/sketch -->
    <title>Medical</title>
    <desc>Created with Sketch.</desc>
    <defs>
        <linearGradient x1="100%" y1="100%" x2="-22.8515625%" y2="-33.2356771%" id="linearGradient-1">
            <stop stop-color="#6FFF80" offset="0%"></stop>
            <stop stop-color="#43CE57" offset="37.2587344%"></stop>
            <stop stop-color="#425FD0" offset="100%"></stop>
        </linearGradient>
    </defs>
    <g id="Mainpage" stroke="none" stroke-width="1" fill="none" fill-rule="evenodd">
        <g id="Mainpage_Layout_V4_Megamenu" transform="translate(-829.000000, -4047.000000)" fill="url(#linearGradient-1)">
            <g id="Content" transform="translate(-44.000000, 1530.000000)">
                <g id="Deliver" transform="translate(62.000000, 1032.000000)">
                    <g id="Product" transform="translate(776.000000, 967.000000)">
                        <g id="Auto" transform="translate(35.420728, 515.000000)">
                            <g id="Medical" transform="translate(0.000000, 3.000000)">
                                <path d="M36.4920058,25.5409836 C36.4920058,26.4492459 35.5314156,27.4098361 34.6231533,27.4098361 L3.47561236,27.4098361 C2.56735007,27.4098361 1.6067599,26.4492459 1.6067599,25.5409836 L1.6067599,3.1147541 C1.6067599,2.2064918 2.56735007,1.24590164 3.47561236,1.24590164 L34.6231533,1.24590164 C35.5314156,1.24590164 36.4920058,2.2064918 36.4920058,3.1147541 L36.4920058,25.5409836 Z M34.6231533,0 L3.47561236,0 C1.87462876,0 0.360858265,1.51377049 0.360858265,3.1147541 L0.360858265,25.5409836 C0.360858265,27.1419672 1.87462876,28.6557377 3.47561236,28.6557377 L34.6231533,28.6557377 C36.224137,28.6557377 37.7379074,27.1419672 37.7379074,25.5409836 L37.7379074,3.1147541 C37.7379074,1.51377049 36.224137,0 34.6231533,0 L34.6231533,0 Z M28.5761697,4.80108197 C28.332596,4.5575082 28.332596,4.16380328 28.5761697,3.92022951 C28.8197435,3.67665574 29.2134484,3.67665574 29.4570222,3.92022951 L34.4406288,8.90383607 C34.6842025,9.14740984 34.6842025,9.54111475 34.4406288,9.78468852 C34.3191533,9.90616393 34.1596779,9.96721311 34.0002025,9.96721311 C33.8407271,9.96721311 33.6812517,9.90616393 33.5597763,9.78468852 L28.5761697,4.80108197 Z M32.3138747,4.80108197 C32.0703009,4.5575082 32.0703009,4.16380328 32.3138747,3.92022951 C32.5574484,3.67665574 32.9511533,3.67665574 33.1947271,3.92022951 L34.4406288,5.16613115 C34.6842025,5.40970492 34.6842025,5.80340984 34.4406288,6.04698361 C34.3191533,6.16845902 34.1596779,6.2295082 34.0002025,6.2295082 C33.8407271,6.2295082 33.6812517,6.16845902 33.5597763,6.04698361 L32.3138747,4.80108197 Z M27.7706943,34.2622951 C27.7706943,34.6061639 27.4916124,34.8852459 27.1477435,34.8852459 L10.9510222,34.8852459 C10.6071533,34.8852459 10.3280714,34.6061639 10.3280714,34.2622951 C10.3280714,33.9184262 10.6071533,33.6393443 10.9510222,33.6393443 L15.3116779,33.6393443 L15.3116779,30.5245902 C15.3116779,30.1807213 15.5907599,29.9016393 15.9346288,29.9016393 C16.2784976,29.9016393 16.5575796,30.1807213 16.5575796,30.5245902 L16.5575796,33.6393443 L21.5411861,33.6393443 L21.5411861,30.5245902 C21.5411861,30.1807213 21.8202681,29.9016393 22.164137,29.9016393 C22.5080058,29.9016393 22.7870878,30.1807213 22.7870878,30.5245902 L22.7870878,33.6393443 L27.1477435,33.6393443 C27.4916124,33.6393443 27.7706943,33.9184262 27.7706943,34.2622951 L27.7706943,34.2622951 Z" id="computer"></path>
                                <path d="M30.5621907,13.2700052 L26.3531022,19.4790937 C26.3181826,19.5140133 26.2722255,19.5139421 26.2394213,19.4811379 L23.5200205,13.7617371 C23.0638316,13.3055482 22.3239387,13.3044576 21.8678315,13.7605647 L18.2543203,21.374076 C18.2227742,21.405622 18.1767026,21.4057502 18.1484011,21.3774487 L13.6813686,12.9104163 C13.228607,12.4576546 12.4857575,12.4617563 12.0298479,12.917666 L6.30070247,22.6468114 L7.07156478,23.4176737 L12.8007102,13.6885283 C12.8327783,13.6564602 12.8853974,13.6561697 12.9105063,13.6812786 L17.3775388,22.1483111 C17.8325388,22.603311 18.5688582,22.6012627 19.0251826,22.1449383 C19.481507,21.6886139 22.6386938,14.531427 22.6386938,14.531427 C22.6685559,14.5015649 22.7181969,14.5016381 22.7491582,14.5325994 L25.468559,20.2520002 C25.926565,20.7100063 26.6627739,20.7111465 27.1239645,20.249956 L31.333053,14.0408675 L30.5621907,13.2700052 Z" id="Path" fill-rule="nonzero"></path>
                            </g>
                        </g>
                    </g>
                </g>
            </g>
        </g>
    </g>
</svg>