<?xml version="1.0" encoding="UTF-8"?>
<svg width="21px" height="38px" viewBox="0 0 21 38" version="1.1" xmlns="http://www.w3.org/2000/svg" xmlns:xlink="http://www.w3.org/1999/xlink">
    <!-- Generator: Sketch 44.1 (41455) - http://www.bohemiancoding.com/sketch -->
    <title>iphone</title>
    <desc>Created with Sketch.</desc>
    <defs>
        <linearGradient x1="100%" y1="100%" x2="-22.8515625%" y2="-33.2356771%" id="linearGradient-1">
            <stop stop-color="#6FFF80" offset="0%"></stop>
            <stop stop-color="#43CE57" offset="37.2587344%"></stop>
            <stop stop-color="#425FD0" offset="100%"></stop>
        </linearGradient>
    </defs>
    <g id="Mainpage" stroke="none" stroke-width="1" fill="none" fill-rule="evenodd">
        <g id="Mainpage_Layout_V4_Megamenu" transform="translate(-160.000000, -3253.000000)" fill="url(#linearGradient-1)">
            <g id="Content" transform="translate(-44.000000, 1530.000000)">
                <g id="Deliver" transform="translate(62.000000, 1032.000000)">
                    <g id="Solution" transform="translate(0.907344, 0.000000)">
                        <g id="Auto" transform="translate(133.000000, 691.000000)">
                            <path d="M8.09265614,28.5 L8.09265614,3.16666667 C8.09265614,1.539 9.63165614,0 11.2593228,0 L25.1926561,0 C26.8203228,0 28.3593228,1.539 28.3593228,3.16666667 C28.3593228,3.51626667 28.0755895,3.8 27.7259895,3.8 C27.3763895,3.8 27.0926561,3.51626667 27.0926561,3.16666667 C27.0926561,2.24326667 26.1160561,1.26666667 25.1926561,1.26666667 L11.2593228,1.26666667 C10.3359228,1.26666667 9.35932281,2.24326667 9.35932281,3.16666667 L9.35932281,28.5 C9.35932281,28.8496 9.07558948,29.1333333 8.72598948,29.1333333 C8.37638948,29.1333333 8.09265614,28.8496 8.09265614,28.5 L8.09265614,28.5 Z M27.7259895,5.06666667 L11.2593228,5.06666667 C10.9097228,5.06666667 10.6259895,5.3504 10.6259895,5.7 C10.6259895,6.0496 10.9097228,6.33333333 11.2593228,6.33333333 L27.0926561,6.33333333 L27.0926561,34.8333333 C27.0926561,35.7567333 26.1160561,36.7333333 25.1926561,36.7333333 L11.2593228,36.7333333 C10.3359228,36.7333333 9.35932281,35.7567333 9.35932281,34.8333333 L9.35932281,31.6666667 L25.1926561,31.6666667 C25.5422561,31.6666667 25.8259895,31.3829333 25.8259895,31.0333333 C25.8259895,30.6837333 25.5422561,30.4 25.1926561,30.4 L8.72598948,30.4 C8.37638948,30.4 8.09265614,30.6837333 8.09265614,31.0333333 L8.09265614,34.8333333 C8.09265614,36.461 9.63165614,38 11.2593228,38 L25.1926561,38 C26.8203228,38 28.3593228,36.461 28.3593228,34.8333333 L28.3593228,5.7 C28.3593228,5.3504 28.0755895,5.06666667 27.7259895,5.06666667 L27.7259895,5.06666667 Z M16.9593228,34.2 C16.9593228,34.8985667 17.5274228,35.4666667 18.2259895,35.4666667 C18.9245561,35.4666667 19.4926561,34.8985667 19.4926561,34.2 C19.4926561,33.5014333 18.9245561,32.9333333 18.2259895,32.9333333 C17.5274228,32.9333333 16.9593228,33.5014333 16.9593228,34.2 L16.9593228,34.2 Z M16.3386561,2.53333333 C15.9890561,2.53333333 15.7084895,2.81706667 15.7084895,3.16666667 C15.7084895,3.51626667 15.9947561,3.8 16.3449895,3.8 C16.6952228,3.8 16.9783228,3.51626667 16.9783228,3.16666667 C16.9783228,2.81706667 16.6952228,2.53333333 16.3449895,2.53333333 L16.3386561,2.53333333 L16.3386561,2.53333333 Z M18.8593228,2.53333333 C18.5097228,2.53333333 18.2259895,2.81706667 18.2259895,3.16666667 C18.2259895,3.51626667 18.5097228,3.8 18.8593228,3.8 L21.3926561,3.8 C21.7422561,3.8 22.0259895,3.51626667 22.0259895,3.16666667 C22.0259895,2.81706667 21.7422561,2.53333333 21.3926561,2.53333333 L18.8593228,2.53333333 L18.8593228,2.53333333 Z M23.9259895,11.4 C24.0881228,11.4 24.2502561,11.3379333 24.3737561,11.2144333 C24.6213895,10.9668 24.6213895,10.5665333 24.3737561,10.3189 L23.1070895,9.05223333 C22.8594561,8.8046 22.4591895,8.8046 22.2115561,9.05223333 C21.9639228,9.29986667 21.9639228,9.70013333 22.2115561,9.94776667 L23.4782228,11.2144333 C23.6017228,11.3379333 23.7638561,11.4 23.9259895,11.4 L23.9259895,11.4 Z M18.4115561,9.05223333 C18.1639228,9.29986667 18.1639228,9.70013333 18.4115561,9.94776667 L23.4782228,15.0144333 C23.6017228,15.1379333 23.7638561,15.2 23.9259895,15.2 C24.0881228,15.2 24.2502561,15.1379333 24.3737561,15.0144333 C24.6213895,14.7668 24.6213895,14.3665333 24.3737561,14.1189 L19.3070895,9.05223333 C19.0594561,8.8046 18.6591895,8.8046 18.4115561,9.05223333 L18.4115561,9.05223333 Z" id="iphone"></path>
                        </g>
                    </g>
                </g>
            </g>
        </g>
    </g>
</svg>