<?xml version="1.0" encoding="UTF-8"?>
<svg width="38px" height="38px" viewBox="0 0 38 38" version="1.1" xmlns="http://www.w3.org/2000/svg" xmlns:xlink="http://www.w3.org/1999/xlink">
    <!-- Generator: Sketch 44.1 (41455) - http://www.bohemiancoding.com/sketch -->
    <title>chat-dialog</title>
    <desc>Created with Sketch.</desc>
    <defs>
        <linearGradient x1="100%" y1="100%" x2="-22.8515625%" y2="-33.2356771%" id="linearGradient-1">
            <stop stop-color="#6FFF80" offset="0%"></stop>
            <stop stop-color="#43CE57" offset="37.2587344%"></stop>
            <stop stop-color="#425FD0" offset="100%"></stop>
        </linearGradient>
    </defs>
    <g id="Mainpage" stroke="none" stroke-width="1" fill="none" fill-rule="evenodd">
        <g id="Mainpage_Layout_V4_Megamenu" transform="translate(-882.000000, -7064.000000)" fill="url(#linearGradient-1)">
            <g id="Content" transform="translate(-44.000000, 1530.000000)">
                <g id="Buynow" transform="translate(68.000000, 3932.000000)">
                    <g transform="translate(712.000000, 1527.000000)" id="chat-dialog">
                        <path d="M184,78.1666667 L184,89.5666667 C184,91.3127667 182.5788,92.7333333 180.8327,92.7333333 L165.6327,92.7333333 C163.887233,92.7333333 162.466667,91.3127667 162.466667,89.5666667 L162.466667,82.6 C162.466667,82.2504 162.7504,81.9666667 163.1,81.9666667 C163.4496,81.9666667 163.733333,82.2504 163.733333,82.6 L163.733333,89.5666667 C163.733333,90.6142 164.585167,91.4666667 165.6327,91.4666667 L180.8327,91.4666667 C181.880233,91.4666667 182.733333,90.6142 182.733333,89.5666667 L182.733333,78.1666667 C182.733333,77.1191333 181.880233,76.2666667 180.8327,76.2666667 L160.8295,76.2666667 L164.815067,80.2522333 C165.0627,80.4998667 165.0627,80.9001333 164.815067,81.1477667 C164.567433,81.3954 164.167167,81.3954 163.919533,81.1477667 L158.852233,76.0811 C158.6711,75.8999667 158.616633,75.6276333 158.7148,75.3907667 C158.812967,75.1545333 159.044133,75 159.3,75 L180.8327,75 C182.5788,75 184,76.4205667 184,78.1666667 L184,78.1666667 Z M170.7,95.2666667 L148.9336,95.2666667 C147.316067,95.2666667 146,96.6872333 146,98.4333333 L146,109.833333 C146,111.579433 147.316067,113 148.9336,113 L164.3331,113 C166.038033,113 167.533333,111.520533 167.533333,109.830167 L167.533333,102.864133 C167.531433,102.515167 167.248333,102.233333 166.9,102.233333 L166.896833,102.233333 C166.547233,102.235233 166.264767,102.520233 166.266667,102.869833 L166.266667,109.833333 C166.266667,110.903667 165.227367,111.733333 164.3331,111.733333 L148.9336,111.733333 C148.014633,111.733333 147.266667,110.880867 147.266667,109.833333 L147.266667,98.4333333 C147.266667,97.3858 148.014633,96.5333333 148.9336,96.5333333 L169.1781,96.5333333 L165.217233,100.520167 C164.970867,100.768433 164.972133,101.169333 165.2204,101.4157 C165.468667,101.6627 165.869567,101.661433 166.115933,101.413167 L171.149033,96.3465 C171.329533,96.1647333 171.382733,95.8930333 171.284567,95.6568 C171.187033,95.4205667 170.955867,95.2666667 170.7,95.2666667 L170.7,95.2666667 Z M159.933333,102.233333 C159.933333,101.883733 159.6496,101.6 159.3,101.6 L151.7,101.6 C151.3504,101.6 151.066667,101.883733 151.066667,102.233333 C151.066667,102.582933 151.3504,102.866667 151.7,102.866667 L159.3,102.866667 C159.6496,102.866667 159.933333,102.582933 159.933333,102.233333 L159.933333,102.233333 Z M151.7,105.4 C151.3504,105.4 151.066667,105.683733 151.066667,106.033333 C151.066667,106.382933 151.3504,106.666667 151.7,106.666667 L154.233333,106.666667 C154.582933,106.666667 154.866667,106.382933 154.866667,106.033333 C154.866667,105.683733 154.582933,105.4 154.233333,105.4 L151.7,105.4 L151.7,105.4 Z M156.766667,106.666667 L161.833333,106.666667 C162.182933,106.666667 162.466667,106.382933 162.466667,106.033333 C162.466667,105.683733 162.182933,105.4 161.833333,105.4 L156.766667,105.4 C156.417067,105.4 156.133333,105.683733 156.133333,106.033333 C156.133333,106.382933 156.417067,106.666667 156.766667,106.666667 L156.766667,106.666667 Z M146,81.3333333 L146,80.0666667 C146,79.5986333 146.255233,79.1895 146.633333,78.9703667 L146.633333,78.8 C146.633333,76.7043 148.337633,75 150.433333,75 L152.966667,75 C155.062367,75 156.766667,76.7043 156.766667,78.8 L156.766667,78.9703667 C157.144767,79.1895 157.4,79.5986333 157.4,80.0666667 L157.4,81.3333333 C157.4,81.8108667 157.134,82.2282333 156.741967,82.4435667 C156.621633,83.6608333 156.092167,84.7324333 156.0662,84.7831 C155.4924,85.9313333 154.624733,87.6666667 151.7,87.6666667 C148.775267,87.6666667 147.9076,85.9313333 147.333167,84.7831 C147.307833,84.7324333 146.779,83.6608333 146.658033,82.4435667 C146.266,82.2282333 146,81.8108667 146,81.3333333 L146,81.3333333 Z M147.266667,81.3333333 C147.616267,81.3333333 147.9,81.6170667 147.9,81.9666667 C147.9,83.0623333 148.461133,84.2061333 148.466833,84.2175333 C149.1255,85.5355 149.7069,86.4 151.7,86.4 C153.692467,86.4 154.2745,85.5355 154.933167,84.2169 C154.938867,84.2061333 155.5,83.0623333 155.5,81.9666667 C155.5,81.6170667 155.783733,81.3333333 156.133333,81.3333333 L156.133333,80.0666667 C155.783733,80.0666667 155.5,79.7829333 155.5,79.4333333 L155.5,78.8 C155.5,77.4028667 154.3638,76.2666667 152.966667,76.2666667 L150.433333,76.2666667 C149.0362,76.2666667 147.9,77.4028667 147.9,78.8 L147.9,79.4333333 C147.9,79.7829333 147.616267,80.0666667 147.266667,80.0666667 L147.266667,81.3333333 L147.266667,81.3333333 Z M152.966667,81.3333333 L153.6,81.3333333 C153.9496,81.3333333 154.233333,81.0496 154.233333,80.7 C154.233333,80.3504 153.9496,80.0666667 153.6,80.0666667 L152.966667,80.0666667 C152.617067,80.0666667 152.333333,80.3504 152.333333,80.7 C152.333333,81.0496 152.617067,81.3333333 152.966667,81.3333333 L152.966667,81.3333333 Z M149.8,81.3333333 L150.433333,81.3333333 C150.782933,81.3333333 151.066667,81.0496 151.066667,80.7 C151.066667,80.3504 150.782933,80.0666667 150.433333,80.0666667 L149.8,80.0666667 C149.4504,80.0666667 149.166667,80.3504 149.166667,80.7 C149.166667,81.0496 149.4504,81.3333333 149.8,81.3333333 L149.8,81.3333333 Z M184,100.333333 L184,101.6 C184,102.077533 183.734,102.4949 183.3426,102.710233 C183.221633,103.9275 182.692167,104.9991 182.6662,105.049767 C182.0924,106.198 181.224733,107.933333 178.3,107.933333 C175.375267,107.933333 174.5076,106.198 173.933167,105.049767 C173.907833,104.9991 173.378367,103.9275 173.2574,102.710233 C172.866,102.4949 172.6,102.077533 172.6,101.6 L172.6,100.333333 C172.6,99.8653 172.8546,99.4561667 173.233333,99.2370333 L173.233333,99.0666667 C173.233333,96.9709667 174.937633,95.2666667 177.033333,95.2666667 L179.566667,95.2666667 C181.662367,95.2666667 183.366667,96.9709667 183.366667,99.0666667 L183.366667,99.2370333 C183.7454,99.4561667 184,99.8653 184,100.333333 L184,100.333333 Z M182.733333,100.333333 C182.3831,100.333333 182.1,100.0496 182.1,99.7 L182.1,99.0666667 C182.1,97.6695333 180.9638,96.5333333 179.566667,96.5333333 L177.033333,96.5333333 C175.6362,96.5333333 174.5,97.6695333 174.5,99.0666667 L174.5,99.7 C174.5,100.0496 174.2169,100.333333 173.866667,100.333333 L173.866667,101.6 C174.2169,101.6 174.5,101.883733 174.5,102.233333 C174.5,103.329 175.061133,104.4728 175.066833,104.4842 C175.7255,105.802167 176.3069,106.666667 178.3,106.666667 C180.2931,106.666667 180.8745,105.802167 181.533167,104.483567 C181.538867,104.4728 182.1,103.329 182.1,102.233333 C182.1,101.883733 182.3831,101.6 182.733333,101.6 L182.733333,100.333333 L182.733333,100.333333 Z M180.2,100.333333 L179.566667,100.333333 C179.216433,100.333333 178.933333,100.617067 178.933333,100.966667 C178.933333,101.316267 179.216433,101.6 179.566667,101.6 L180.2,101.6 C180.550233,101.6 180.833333,101.316267 180.833333,100.966667 C180.833333,100.617067 180.550233,100.333333 180.2,100.333333 L180.2,100.333333 Z M177.033333,100.333333 L176.4,100.333333 C176.049767,100.333333 175.766667,100.617067 175.766667,100.966667 C175.766667,101.316267 176.049767,101.6 176.4,101.6 L177.033333,101.6 C177.383567,101.6 177.666667,101.316267 177.666667,100.966667 C177.666667,100.617067 177.383567,100.333333 177.033333,100.333333 L177.033333,100.333333 Z M168.166667,86.4 L170.7,86.4 C171.050233,86.4 171.333333,86.1162667 171.333333,85.7666667 C171.333333,85.4170667 171.050233,85.1333333 170.7,85.1333333 L168.166667,85.1333333 C167.816433,85.1333333 167.533333,85.4170667 167.533333,85.7666667 C167.533333,86.1162667 167.816433,86.4 168.166667,86.4 L168.166667,86.4 Z M172.6,85.7666667 C172.6,86.1162667 172.8831,86.4 173.233333,86.4 L178.3,86.4 C178.650233,86.4 178.933333,86.1162667 178.933333,85.7666667 C178.933333,85.4170667 178.650233,85.1333333 178.3,85.1333333 L173.233333,85.1333333 C172.8831,85.1333333 172.6,85.4170667 172.6,85.7666667 L172.6,85.7666667 Z M175.766667,81.3333333 L168.166667,81.3333333 C167.816433,81.3333333 167.533333,81.6170667 167.533333,81.9666667 C167.533333,82.3162667 167.816433,82.6 168.166667,82.6 L175.766667,82.6 C176.1169,82.6 176.4,82.3162667 176.4,81.9666667 C176.4,81.6170667 176.1169,81.3333333 175.766667,81.3333333 L175.766667,81.3333333 Z"></path>
                    </g>
                </g>
            </g>
        </g>
    </g>
</svg>