<?xml version="1.0" encoding="UTF-8"?>
<svg width="32px" height="32px" viewBox="0 0 32 32" version="1.1" xmlns="http://www.w3.org/2000/svg" xmlns:xlink="http://www.w3.org/1999/xlink">
    <!-- Generator: Sketch 44.1 (41455) - http://www.bohemiancoding.com/sketch -->
    <title>target-off</title>
    <desc>Created with Sketch.</desc>
    <defs></defs>
    <g id="Mainpage" stroke="none" stroke-width="1" fill="none" fill-rule="evenodd">
        <g id="Mainpage_Layout_V4_Megamenu" transform="translate(-704.000000, -5818.000000)" fill="#CECFD5">
            <g id="Content" transform="translate(-44.000000, 1530.000000)">
                <g id="Support" transform="translate(277.000000, 4042.000000)">
                    <path d="M477.4,254 C477.4,254.882133 478.117867,255.6 479,255.6 C479.882133,255.6 480.6,254.882133 480.6,254 C480.6,253.117867 479.882133,252.4 479,252.4 C478.117867,252.4 477.4,253.117867 477.4,254 M476.333333,254 C476.333333,252.5296 477.5296,251.333333 479,251.333333 C480.4704,251.333333 481.666667,252.5296 481.666667,254 C481.666667,255.4704 480.4704,256.666667 479,256.666667 C477.5296,256.666667 476.333333,255.4704 476.333333,254 M485.933333,262 C485.933333,262.588267 486.411733,263.066667 487,263.066667 C487.5888,263.066667 488.066667,262.588267 488.066667,262 C488.066667,261.411733 487.5888,260.933333 487,260.933333 C486.411733,260.933333 485.933333,261.411733 485.933333,262 M484.866667,262 C484.866667,260.823467 485.823467,259.866667 487,259.866667 C488.176,259.866667 489.133333,260.823467 489.133333,262 C489.133333,263.176533 488.176,264.133333 487,264.133333 C485.823467,264.133333 484.866667,263.176533 484.866667,262 M502.466667,261.466667 L495.506133,261.466667 C495.239467,257.187733 491.812267,253.76 487.533333,253.493867 L487.533333,246.533333 C487.533333,246.238933 487.294933,246 487,246 C486.7056,246 486.466667,246.238933 486.466667,246.533333 L486.466667,253.485333 C485.047467,253.573333 483.6752,254.0112 482.469867,254.767467 C482.2208,254.924267 482.145067,255.253333 482.301867,255.502933 C482.458667,255.753067 482.788267,255.8272 483.037333,255.670933 C484.2224,254.926933 485.593067,254.533333 487,254.533333 C491.117333,254.533333 494.466667,257.882667 494.466667,262 C494.466667,266.117333 491.117333,269.466667 487,269.466667 C482.882667,269.466667 479.533333,266.117333 479.533333,262 C479.533333,260.5776 479.933867,259.195733 480.692267,258.002133 C480.850133,257.7536 480.777067,257.424 480.528,257.266133 C480.28,257.108267 479.9504,257.181867 479.792,257.4304 C479.020267,258.6448 478.5744,260.030933 478.485333,261.466667 L471.533333,261.466667 C471.238933,261.466667 471,261.7056 471,262 C471,262.2944 471.238933,262.533333 471.533333,262.533333 L478.493867,262.533333 C478.76,266.812267 482.187733,270.24 486.466667,270.506133 L486.466667,277.466667 C486.466667,277.761067 486.7056,278 487,278 C487.294933,278 487.533333,277.761067 487.533333,277.466667 L487.533333,270.506133 C491.812267,270.24 495.239467,266.812267 495.506133,262.533333 L502.466667,262.533333 C502.7616,262.533333 503,262.2944 503,262 C503,261.7056 502.7616,261.466667 502.466667,261.466667 M482.733333,262 C482.733333,264.352533 484.647467,266.266667 487,266.266667 C489.352533,266.266667 491.266667,264.352533 491.266667,262 C491.266667,259.647467 489.352533,257.733333 487,257.733333 C484.647467,257.733333 482.733333,259.647467 482.733333,262 M481.666667,262 C481.666667,259.0592 484.0592,256.666667 487,256.666667 C489.9408,256.666667 492.333333,259.0592 492.333333,262 C492.333333,264.9408 489.9408,267.333333 487,267.333333 C484.0592,267.333333 481.666667,264.9408 481.666667,262 M484.966933,272.473067 C480.736533,271.657067 477.345067,268.266667 476.527467,264.036267 C476.470933,263.746667 476.1904,263.5568 475.9024,263.613867 C475.613333,263.669867 475.424,263.949333 475.48,264.238933 C476.379733,268.8928 480.110933,272.622933 484.7648,273.520533 C484.798933,273.526933 484.833067,273.530133 484.866133,273.530133 C485.1168,273.530133 485.340267,273.353067 485.389333,273.098133 C485.4448,272.808533 485.256,272.529067 484.966933,272.473067 M498.098133,263.610667 C497.808533,263.555733 497.529067,263.744 497.473067,264.033067 C496.657067,268.264 493.266133,271.655467 489.0352,272.473067 C488.7456,272.529067 488.557333,272.809067 488.612267,273.098133 C488.661867,273.353067 488.885333,273.530133 489.136,273.530133 C489.1696,273.530133 489.2032,273.526933 489.237333,273.520533 C493.891733,272.621333 497.622933,268.8896 498.521067,264.2352 C498.576,263.9456 498.387733,263.666133 498.098133,263.610667 M489.0352,251.527467 C493.2704,252.345067 496.661333,255.740267 497.4752,259.976 C497.523733,260.230933 497.746667,260.408533 497.997867,260.408533 C498.031467,260.408533 498.065067,260.405333 498.0992,260.398933 C498.3888,260.343467 498.5776,260.064 498.522133,259.774933 C497.628267,255.1152 493.897067,251.379733 489.237333,250.48 C488.946667,250.424 488.6688,250.6128 488.612267,250.9024 C488.557333,251.191467 488.7456,251.471467 489.0352,251.527467 M482.2,252.4112 C482.277333,252.4112 482.3552,252.3952 482.4288,252.36 C483.234133,251.977067 484.0864,251.697067 484.961067,251.528 C485.250133,251.471467 485.438933,251.192 485.382933,250.9024 C485.3264,250.613867 485.047467,250.424 484.757867,250.480533 C483.7952,250.666667 482.8576,250.975467 481.9712,251.396267 C481.705067,251.522667 481.592,251.841067 481.7184,252.1072 C481.8096,252.2992 482.000533,252.4112 482.2,252.4112 M475.474667,259.788267 C475.661333,258.813333 475.9712,257.866133 476.396267,256.9712 C476.522667,256.704533 476.841067,256.591467 477.1072,256.7184 C477.3728,256.844267 477.4864,257.162667 477.36,257.4288 C476.973867,258.242133 476.691733,259.102933 476.522133,259.9888 C476.4736,260.244267 476.2496,260.421867 475.998933,260.421867 C475.965867,260.421867 475.932267,260.418667 475.898133,260.411733 C475.609067,260.3568 475.4192,260.077333 475.474667,259.788267" id="target-off"></path>
                </g>
            </g>
        </g>
    </g>
</svg>