<?xml version="1.0" encoding="UTF-8"?>
<svg width="38px" height="38px" viewBox="0 0 38 38" version="1.1" xmlns="http://www.w3.org/2000/svg" xmlns:xlink="http://www.w3.org/1999/xlink">
    <!-- Generator: Sketch 44.1 (41455) - http://www.bohemiancoding.com/sketch -->
    <title>coin-card</title>
    <desc>Created with Sketch.</desc>
    <defs>
        <linearGradient x1="100%" y1="100%" x2="-22.8515625%" y2="-33.2356771%" id="linearGradient-1">
            <stop stop-color="#6FFF80" offset="0%"></stop>
            <stop stop-color="#43CE57" offset="37.2587344%"></stop>
            <stop stop-color="#425FD0" offset="100%"></stop>
        </linearGradient>
    </defs>
    <g id="Mainpage" stroke="none" stroke-width="1" fill="none" fill-rule="evenodd">
        <g id="Mainpage_Layout_V4_Megamenu" transform="translate(-273.000000, -7067.000000)" fill="url(#linearGradient-1)">
            <g id="Content" transform="translate(-44.000000, 1530.000000)">
                <g id="Buynow" transform="translate(68.000000, 3932.000000)">
                    <g transform="translate(92.000000, 1527.000000)" id="coin-card">
                        <path d="M182.333333,98.9 L182.333333,110.3 C182.333333,110.6496 182.616433,110.933333 182.966667,110.933333 C183.3169,110.933333 183.6,110.6496 183.6,110.3 L183.6,98.9 C183.6,98.5504 183.3169,98.2666667 182.966667,98.2666667 C182.616433,98.2666667 182.333333,98.5504 182.333333,98.9 L182.333333,98.9 Z M181.066667,93.8333333 C181.066667,93.4837333 180.783567,93.2 180.433333,93.2 C180.0831,93.2 179.8,93.4837333 179.8,93.8333333 L179.8,98.9 C179.8,99.2496 180.0831,99.5333333 180.433333,99.5333333 C180.783567,99.5333333 181.066667,99.2496 181.066667,98.9 L181.066667,93.8333333 Z M180.433333,100.8 C180.0831,100.8 179.8,101.083733 179.8,101.433333 L179.8,110.3 C179.8,110.6496 180.0831,110.933333 180.433333,110.933333 C180.783567,110.933333 181.066667,110.6496 181.066667,110.3 L181.066667,101.433333 C181.066667,101.083733 180.783567,100.8 180.433333,100.8 L180.433333,100.8 Z M173.466667,92.5666667 L173.466667,112.833333 C173.466667,113.182933 173.749767,113.466667 174.1,113.466667 C174.450233,113.466667 174.733333,113.182933 174.733333,112.833333 L174.733333,92.5666667 C174.733333,92.2170667 174.450233,91.9333333 174.1,91.9333333 C173.749767,91.9333333 173.466667,92.2170667 173.466667,92.5666667 L173.466667,92.5666667 Z M185.5,83.7 C185.850233,83.7 186.133333,83.4162667 186.133333,83.0666667 C186.133333,82.7170667 185.850233,82.4333333 185.5,82.4333333 L179.166667,82.4333333 C178.816433,82.4333333 178.533333,82.7170667 178.533333,83.0666667 C178.533333,83.4162667 178.816433,83.7 179.166667,83.7 L185.5,83.7 Z M191.2,83.0666667 C191.2,82.3681 190.6319,81.8 189.933333,81.8 C189.234767,81.8 188.666667,82.3681 188.666667,83.0666667 C188.666667,83.7652333 189.234767,84.3333333 189.933333,84.3333333 C190.6319,84.3333333 191.2,83.7652333 191.2,83.0666667 L191.2,83.0666667 Z M191.2,92.5666667 C191.2,92.9162667 191.4831,93.2 191.833333,93.2 C192.183567,93.2 192.466667,92.9162667 192.466667,92.5666667 L192.466667,87.5 C192.466667,87.1504 192.183567,86.8666667 191.833333,86.8666667 L160.166667,86.8666667 C159.816433,86.8666667 159.533333,87.1504 159.533333,87.5 L159.533333,92.5666667 C159.533333,92.9162667 159.816433,93.2 160.166667,93.2 C160.5169,93.2 160.8,92.9162667 160.8,92.5666667 L160.8,88.1333333 L191.2,88.1333333 L191.2,92.5666667 Z M191.833333,78 L160.166667,78 C158.420567,78 157,79.4205667 157,81.1666667 L157,95.1 C157,96.8461 158.420567,98.2666667 160.166667,98.2666667 C160.5169,98.2666667 160.8,97.9829333 160.8,97.6333333 C160.8,97.2837333 160.5169,97 160.166667,97 C159.119133,97 158.266667,96.1475333 158.266667,95.1 L158.266667,81.1666667 C158.266667,80.1191333 159.119133,79.2666667 160.166667,79.2666667 L191.833333,79.2666667 C192.880867,79.2666667 193.733333,80.1191333 193.733333,81.1666667 L193.733333,95.1 C193.733333,96.1475333 192.880867,97 191.833333,97 C191.4831,97 191.2,97.2837333 191.2,97.6333333 C191.2,97.9829333 191.4831,98.2666667 191.833333,98.2666667 C193.579433,98.2666667 195,96.8461 195,95.1 L195,81.1666667 C195,79.4205667 193.579433,78 191.833333,78 L191.833333,78 Z M189.3,89.4 C188.949767,89.4 188.666667,89.6837333 188.666667,90.0333333 L188.666667,112.833333 C188.666667,113.880867 187.8142,114.733333 186.766667,114.733333 L171.566667,114.733333 C171.216433,114.733333 170.933333,115.017067 170.933333,115.366667 C170.933333,115.716267 171.216433,116 171.566667,116 L186.766667,116 C188.512767,116 189.933333,114.579433 189.933333,112.833333 L189.933333,90.0333333 C189.933333,89.6837333 189.650233,89.4 189.3,89.4 L189.3,89.4 Z M169.666667,92.5666667 L169.666667,115.366667 C169.666667,115.716267 169.383567,116 169.033333,116 L165.233333,116 C163.487233,116 162.066667,114.579433 162.066667,112.833333 L162.066667,90.0333333 C162.066667,89.6837333 162.349767,89.4 162.7,89.4 L186.766667,89.4 C187.1169,89.4 187.4,89.6837333 187.4,90.0333333 C187.4,90.3829333 187.1169,90.6666667 186.766667,90.6666667 L163.333333,90.6666667 L163.333333,112.833333 C163.333333,113.880867 164.1858,114.733333 165.233333,114.733333 L168.4,114.733333 L168.4,92.5666667 C168.4,92.2170667 168.6831,91.9333333 169.033333,91.9333333 C169.383567,91.9333333 169.666667,92.2170667 169.666667,92.5666667 L169.666667,92.5666667 Z"></path>
                    </g>
                </g>
            </g>
        </g>
    </g>
</svg>